<svg width="28" height="24" viewBox="0 0 28 24" fill="none" xmlns="http://www.w3.org/2000/svg">
<path d="M13.7374 24L13.2525 23.596C2.82828 15.1111 0 12.1212 0 7.27273C0 3.23232 3.23232 0 7.27273 0C10.5859 0 12.4444 1.85859 13.7374 3.31313C15.0303 1.85859 16.8889 0 20.202 0C24.2424 0 27.4747 3.23232 27.4747 7.27273C27.4747 12.1212 24.6465 15.1111 14.2222 23.596L13.7374 24ZM7.27273 1.61616C4.12121 1.61616 1.61616 4.12121 1.61616 7.27273C1.61616 11.3939 4.20202 14.1414 13.7374 21.899C23.2727 14.1414 25.8586 11.3939 25.8586 7.27273C25.8586 4.12121 23.3535 1.61616 20.202 1.61616C17.3737 1.61616 15.8384 3.31313 14.6263 4.68687L13.7374 5.73737L12.8485 4.68687C11.6364 3.31313 10.101 1.61616 7.27273 1.61616Z" fill="#DEDDDF"/>
</svg>
