<svg width="37" height="27" viewBox="0 0 37 27" fill="none" xmlns="http://www.w3.org/2000/svg">
<path d="M35.5873 10.5444C35.9368 10.5444 36.2721 10.4055 36.5193 10.1583C36.7665 9.91115 36.9053 9.5759 36.9053 9.22633V2.6361C36.9053 1.93696 36.6276 1.26646 36.1332 0.772094C35.6389 0.277731 34.9684 0 34.2692 0H2.63609C1.93696 0 1.26646 0.277731 0.772094 0.772094C0.27773 1.26646 0 1.93696 0 2.6361V9.22633C0 9.5759 0.138865 9.91115 0.386047 10.1583C0.633229 10.4055 0.96848 10.5444 1.31805 10.5444C2.01718 10.5444 2.68768 10.8221 3.18205 11.3165C3.67641 11.8108 3.95414 12.4813 3.95414 13.1805C3.95414 13.8796 3.67641 14.5501 3.18205 15.0445C2.68768 15.5388 2.01718 15.8166 1.31805 15.8166C0.96848 15.8166 0.633229 15.9554 0.386047 16.2026C0.138865 16.4498 0 16.7851 0 17.1346V23.7249C0 24.424 0.27773 25.0945 0.772094 25.5889C1.26646 26.0832 1.93696 26.361 2.63609 26.361H34.2692C34.9684 26.361 35.6389 26.0832 36.1332 25.5889C36.6276 25.0945 36.9053 24.424 36.9053 23.7249V17.1346C36.9053 16.7851 36.7665 16.4498 36.5193 16.2026C36.2721 15.9554 35.9368 15.8166 35.5873 15.8166C34.8881 15.8166 34.2176 15.5388 33.7233 15.0445C33.2289 14.5501 32.9512 13.8796 32.9512 13.1805C32.9512 12.4813 33.2289 11.8108 33.7233 11.3165C34.2176 10.8221 34.8881 10.5444 35.5873 10.5444ZM34.2692 18.2813V23.7249H25.0429V19.7707H22.4068V23.7249H2.63609V18.2813C3.76434 17.9864 4.76298 17.3258 5.47573 16.4028C6.18847 15.4799 6.5751 14.3466 6.5751 13.1805C6.5751 12.0143 6.18847 10.8811 5.47573 9.95812C4.76298 9.03514 3.76434 8.37452 2.63609 8.07963V2.6361H22.4068V6.59024H25.0429V2.6361H34.2692V8.07963C33.141 8.37452 32.1423 9.03514 31.4296 9.95812C30.7169 10.8811 30.3302 12.0143 30.3302 13.1805C30.3302 14.3466 30.7169 15.4799 31.4296 16.4028C32.1423 17.3258 33.141 17.9864 34.2692 18.2813Z" fill="url(#paint0_linear_295_1187)"/>
<path d="M22.4062 9.22638H25.0423V17.1347H22.4062V9.22638Z" fill="#E81956"/>
<path d="M18.4531 13.1805L11.2638 17.3312L11.2638 9.0297L18.4531 13.1805Z" fill="url(#paint1_linear_295_1187)"/>
<defs>
<linearGradient id="paint0_linear_295_1187" x1="36.9852" y1="26.2811" x2="-0.079883" y2="26.2811" gradientUnits="userSpaceOnUse">
<stop offset="0.239583" stop-color="#F03069"/>
<stop offset="0.776042" stop-color="#F8223C"/>
<stop offset="1" stop-color="#FB6140"/>
</linearGradient>
<linearGradient id="paint1_linear_295_1187" x1="8.89637" y1="17.9941" x2="8.89637" y2="8.36682" gradientUnits="userSpaceOnUse">
<stop offset="0.239583" stop-color="#F03069"/>
<stop offset="0.776042" stop-color="#F8223C"/>
<stop offset="1" stop-color="#FB6140"/>
</linearGradient>
</defs>
</svg>
