<svg width="60" height="60" viewBox="0 0 60 60" fill="none" xmlns="http://www.w3.org/2000/svg">
<mask id="path-1-inside-1_295_1653" fill="white">
<path fill-rule="evenodd" clip-rule="evenodd" d="M4 0C1.79086 0 0 1.79086 0 4V26.25C2.07107 26.25 3.75 27.9289 3.75 30C3.75 32.0711 2.07107 33.75 0 33.75V56C0 58.2091 1.79086 60 4 60H56C58.2091 60 60 58.2091 60 56V33.75C57.9289 33.75 56.25 32.0711 56.25 30C56.25 27.9289 57.9289 26.25 60 26.25V4C60 1.79086 58.2091 0 56 0H4ZM30 11.25C32.0711 11.25 33.75 9.57107 33.75 7.5C33.75 5.42893 32.0711 3.75 30 3.75C27.9289 3.75 26.25 5.42893 26.25 7.5C26.25 9.57107 27.9289 11.25 30 11.25Z"/>
</mask>
<path fill-rule="evenodd" clip-rule="evenodd" d="M4 0C1.79086 0 0 1.79086 0 4V26.25C2.07107 26.25 3.75 27.9289 3.75 30C3.75 32.0711 2.07107 33.75 0 33.75V56C0 58.2091 1.79086 60 4 60H56C58.2091 60 60 58.2091 60 56V33.75C57.9289 33.75 56.25 32.0711 56.25 30C56.25 27.9289 57.9289 26.25 60 26.25V4C60 1.79086 58.2091 0 56 0H4ZM30 11.25C32.0711 11.25 33.75 9.57107 33.75 7.5C33.75 5.42893 32.0711 3.75 30 3.75C27.9289 3.75 26.25 5.42893 26.25 7.5C26.25 9.57107 27.9289 11.25 30 11.25Z" fill="white"/>
<path d="M0 26.25H-0.5V26.75H0V26.25ZM0 33.75V33.25H-0.5V33.75H0ZM60 33.75H60.5V33.25H60V33.75ZM60 26.25V26.75H60.5V26.25H60ZM0.5 4C0.5 2.067 2.067 0.5 4 0.5V-0.5C1.51472 -0.5 -0.5 1.51472 -0.5 4H0.5ZM0.5 26.25V4H-0.5V26.25H0.5ZM4.25 30C4.25 27.6528 2.34721 25.75 0 25.75V26.75C1.79493 26.75 3.25 28.2051 3.25 30H4.25ZM0 34.25C2.34721 34.25 4.25 32.3472 4.25 30H3.25C3.25 31.7949 1.79493 33.25 0 33.25V34.25ZM0.5 56V33.75H-0.5V56H0.5ZM4 59.5C2.067 59.5 0.5 57.933 0.5 56H-0.5C-0.5 58.4853 1.51472 60.5 4 60.5V59.5ZM56 59.5H4V60.5H56V59.5ZM59.5 56C59.5 57.933 57.933 59.5 56 59.5V60.5C58.4853 60.5 60.5 58.4853 60.5 56H59.5ZM59.5 33.75V56H60.5V33.75H59.5ZM60 33.25C58.2051 33.25 56.75 31.7949 56.75 30H55.75C55.75 32.3472 57.6528 34.25 60 34.25V33.25ZM56.75 30C56.75 28.2051 58.2051 26.75 60 26.75V25.75C57.6528 25.75 55.75 27.6528 55.75 30H56.75ZM59.5 4V26.25H60.5V4H59.5ZM56 0.5C57.933 0.5 59.5 2.067 59.5 4H60.5C60.5 1.51472 58.4853 -0.5 56 -0.5V0.5ZM4 0.5H56V-0.5H4V0.5ZM33.25 7.5C33.25 9.29493 31.7949 10.75 30 10.75V11.75C32.3472 11.75 34.25 9.84721 34.25 7.5H33.25ZM30 4.25C31.7949 4.25 33.25 5.70507 33.25 7.5H34.25C34.25 5.15279 32.3472 3.25 30 3.25V4.25ZM26.75 7.5C26.75 5.70507 28.2051 4.25 30 4.25V3.25C27.6528 3.25 25.75 5.15279 25.75 7.5H26.75ZM30 10.75C28.2051 10.75 26.75 9.29493 26.75 7.5H25.75C25.75 9.84721 27.6528 11.75 30 11.75V10.75Z" fill="#333333" mask="url(#path-1-inside-1_295_1653)"/>
<path d="M0.25 4C0.25 1.92893 1.92893 0.25 4 0.25H56C58.0711 0.25 59.75 1.92893 59.75 4V26.0077C57.6573 26.1367 56 27.8748 56 30C56 32.1252 57.6573 33.8633 59.75 33.9923V56C59.75 58.0711 58.0711 59.75 56 59.75H4C1.92893 59.75 0.25 58.0711 0.25 56V33.9923C2.34268 33.8633 4 32.1252 4 30C4 27.8748 2.34268 26.1367 0.25 26.0077V4ZM30 11.5C32.2091 11.5 34 9.70914 34 7.5C34 5.29086 32.2091 3.5 30 3.5C27.7909 3.5 26 5.29086 26 7.5C26 9.70914 27.7909 11.5 30 11.5Z" fill="white" stroke="#333333" stroke-width="0.5"/>
</svg>
