<svg width="22" height="24" viewBox="0 0 22 24" fill="none" xmlns="http://www.w3.org/2000/svg">
<path d="M16.2009 5.92172C16.2006 6.56783 16.053 7.20758 15.7664 7.80443C15.4798 8.40127 15.0599 8.94354 14.5306 9.40026C14.0013 9.85698 13.373 10.2192 12.6816 10.4663C11.9902 10.7133 11.2492 10.8404 10.5009 10.8402C9.37391 10.8398 8.27235 10.551 7.33552 10.0101C6.39868 9.46916 5.66863 8.70054 5.23771 7.80139C4.80678 6.90224 4.69432 5.91295 4.91455 4.95861C5.13478 4.00427 5.67781 3.12775 6.47497 2.4399C7.27213 1.75204 8.28761 1.28374 9.39301 1.09422C10.4984 0.904696 11.6441 1.00246 12.6851 1.37515C13.7262 1.74784 14.6158 2.37871 15.2416 3.18799C15.8674 3.99728 16.2013 4.94862 16.2009 5.92172V5.92172Z" stroke="#6D6D80" stroke-linecap="square"/>
<path fill-rule="evenodd" clip-rule="evenodd" d="M2.99626 16.622C3.96771 15.7832 5.2991 15.302 6.7 15.302H14.3C15.7009 15.302 17.0323 15.7832 18.0037 16.622C18.9729 17.4588 19.5 18.5767 19.5 19.7237V22.4983H1.5V19.7237C1.5 18.5767 2.02711 17.4588 2.99626 16.622ZM20.5 19.7237V22.4983V22.9983V22.9999H20V23H20.5V23.5H19.5V23.4983H1H0.5V22.9983V19.7237C0.5 18.2601 1.17396 16.8743 2.34272 15.8651C3.50918 14.8579 5.07744 14.302 6.7 14.302H14.3C15.9226 14.302 17.4908 14.8579 18.6573 15.8651C19.826 16.8743 20.5 18.2601 20.5 19.7237Z" fill="#6D6D80"/>
</svg>
