<svg width="8" height="9" viewBox="0 0 8 9" fill="none" xmlns="http://www.w3.org/2000/svg">
<mask id="path-1-inside-1_345_1690" fill="white">
<path fill-rule="evenodd" clip-rule="evenodd" d="M7.97812 3.6512C7.92567 3.48979 7.78701 3.37207 7.61901 3.34799L5.3933 3.02339L4.39866 0.999978C4.24933 0.694994 3.75067 0.694994 3.60134 0.999978L2.6067 3.02339L0.380985 3.34799C0.21299 3.37207 0.0743266 3.48979 0.0218835 3.6512C-0.0305595 3.8126 0.0129948 3.98917 0.133881 4.10778L1.7445 5.68264L1.36496 7.9067C1.33563 8.07346 1.40407 8.24289 1.54095 8.34277C1.67873 8.44354 1.86095 8.45602 2.00939 8.37666L3.99956 7.32705L5.99061 8.37666C6.0555 8.41054 6.12661 8.42749 6.19772 8.42749C6.28927 8.42749 6.38171 8.39895 6.45905 8.34277C6.59504 8.24289 6.66349 8.07346 6.63504 7.9067L6.2555 5.68264L7.86612 4.10778C7.98701 3.98917 8.03056 3.8126 7.97812 3.6512Z"/>
</mask>
<path fill-rule="evenodd" clip-rule="evenodd" d="M7.97812 3.6512C7.92567 3.48979 7.78701 3.37207 7.61901 3.34799L5.3933 3.02339L4.39866 0.999978C4.24933 0.694994 3.75067 0.694994 3.60134 0.999978L2.6067 3.02339L0.380985 3.34799C0.21299 3.37207 0.0743266 3.48979 0.0218835 3.6512C-0.0305595 3.8126 0.0129948 3.98917 0.133881 4.10778L1.7445 5.68264L1.36496 7.9067C1.33563 8.07346 1.40407 8.24289 1.54095 8.34277C1.67873 8.44354 1.86095 8.45602 2.00939 8.37666L3.99956 7.32705L5.99061 8.37666C6.0555 8.41054 6.12661 8.42749 6.19772 8.42749C6.28927 8.42749 6.38171 8.39895 6.45905 8.34277C6.59504 8.24289 6.66349 8.07346 6.63504 7.9067L6.2555 5.68264L7.86612 4.10778C7.98701 3.98917 8.03056 3.8126 7.97812 3.6512Z" fill="#C4C4C4"/>
<path d="M7.61901 3.34799L7.4747 4.33753L7.47714 4.33788L7.61901 3.34799ZM5.3933 3.02339L4.49586 3.46454L4.72809 3.93696L5.24898 4.01292L5.3933 3.02339ZM4.39866 0.999978L3.50053 1.43973L3.50122 1.44113L4.39866 0.999978ZM3.60134 0.999978L4.49878 1.44113L4.49946 1.43973L3.60134 0.999978ZM2.6067 3.02339L2.75102 4.01292L3.27192 3.93696L3.50414 3.46454L2.6067 3.02339ZM0.380985 3.34799L0.522859 4.33788L0.5253 4.33753L0.380985 3.34799ZM0.133881 4.10778L-0.566461 4.82159L-0.565243 4.82278L0.133881 4.10778ZM1.7445 5.68264L2.73025 5.85086L2.81844 5.33412L2.44363 4.96763L1.7445 5.68264ZM1.36496 7.9067L2.34985 8.07994L2.35071 8.07492L1.36496 7.9067ZM1.54095 8.34277L2.13131 7.53562L2.13038 7.53495L1.54095 8.34277ZM2.00939 8.37666L1.54288 7.49212L1.53788 7.49479L2.00939 8.37666ZM3.99956 7.32705L4.46589 6.44244L3.99945 6.19655L3.53306 6.44253L3.99956 7.32705ZM5.99061 8.37666L5.52428 9.26127L5.52769 9.26306L5.99061 8.37666ZM6.45905 8.34277L7.04682 9.15181L7.05098 9.14876L6.45905 8.34277ZM6.63504 7.9067L7.6208 7.73856L7.62079 7.73847L6.63504 7.9067ZM6.2555 5.68264L5.55637 4.96763L5.18156 5.33412L5.26975 5.85086L6.2555 5.68264ZM7.86612 4.10778L8.56524 4.82278L8.56646 4.82159L7.86612 4.10778ZM8.92918 3.34219C8.76008 2.82174 8.31016 2.43683 7.76089 2.35811L7.47714 4.33788C7.26386 4.30731 7.09127 4.15783 7.02706 3.9602L8.92918 3.34219ZM7.76333 2.35846L5.53761 2.03386L5.24898 4.01292L7.4747 4.33753L7.76333 2.35846ZM6.29073 2.58224L5.29609 0.55883L3.50122 1.44113L4.49586 3.46454L6.29073 2.58224ZM5.29678 0.56023C5.01508 -0.0151028 4.44581 -0.22876 4 -0.22876C3.55419 -0.22876 2.98492 -0.0151028 2.70322 0.56023L4.49946 1.43973C4.36709 1.71008 4.12182 1.77124 4 1.77124C3.87818 1.77124 3.63291 1.71008 3.50053 1.43973L5.29678 0.56023ZM2.70391 0.55883L1.70927 2.58224L3.50414 3.46454L4.49878 1.44113L2.70391 0.55883ZM2.46239 2.03386L0.23667 2.35846L0.5253 4.33753L2.75102 4.01292L2.46239 2.03386ZM0.239112 2.35811C-0.310156 2.43683 -0.76008 2.82174 -0.929177 3.34219L0.972944 3.9602C0.908733 4.15783 0.736135 4.30731 0.522859 4.33788L0.239112 2.35811ZM-0.929177 3.34219C-1.09913 3.86527 -0.957629 4.4378 -0.56646 4.82159L0.834221 3.39397C0.983619 3.54055 1.03801 3.75994 0.972944 3.9602L-0.929177 3.34219ZM-0.565243 4.82278L1.04538 6.39764L2.44363 4.96763L0.833004 3.39278L-0.565243 4.82278ZM0.758755 5.51441L0.37921 7.73847L2.35071 8.07492L2.73025 5.85086L0.758755 5.51441ZM0.380079 7.73346C0.284525 8.2767 0.50716 8.82636 0.95153 9.15059L2.13038 7.53495C2.30098 7.65942 2.38673 7.87022 2.34984 8.07993L0.380079 7.73346ZM0.9506 9.14991C1.39742 9.47672 1.9923 9.51976 2.48089 9.25852L1.53788 7.49479C1.7296 7.39229 1.96004 7.41036 2.13131 7.53563L0.9506 9.14991ZM2.47588 9.26118L4.46605 8.21157L3.53306 6.44253L1.54289 7.49213L2.47588 9.26118ZM3.53322 8.21166L5.52428 9.26127L6.45695 7.49205L4.46589 6.44244L3.53322 8.21166ZM5.52769 9.26306C5.73753 9.37264 5.96773 9.42749 6.19772 9.42749V7.42749C6.28549 7.42749 6.37347 7.44845 6.45353 7.49026L5.52769 9.26306ZM6.19772 9.42749C6.49435 9.42749 6.79377 9.33564 7.04681 9.1518L5.87128 7.53374C5.96966 7.46227 6.08419 7.42749 6.19772 7.42749V9.42749ZM7.05098 9.14876C7.49266 8.82438 7.71275 8.27759 7.6208 7.73856L5.64928 8.07484C5.61422 7.86932 5.69742 7.66141 5.86712 7.53678L7.05098 9.14876ZM7.62079 7.73847L7.24124 5.51441L5.26975 5.85086L5.64929 8.07492L7.62079 7.73847ZM6.95462 6.39764L8.56524 4.82278L7.167 3.39278L5.55637 4.96763L6.95462 6.39764ZM8.56646 4.82159C8.95763 4.4378 9.09913 3.86527 8.92918 3.34219L7.02706 3.9602C6.96199 3.75994 7.01638 3.54055 7.16578 3.39397L8.56646 4.82159Z" fill="#C4C4C4" mask="url(#path-1-inside-1_345_1690)"/>
</svg>
