<svg width="305" height="582" viewBox="0 0 305 582" fill="none" xmlns="http://www.w3.org/2000/svg">
<g filter="url(#filter0_d_421_623)">
<mask id="path-1-inside-1_421_623" fill="white">
<path fill-rule="evenodd" clip-rule="evenodd" d="M6 10C6 5.58173 9.58172 2 14 2H291C295.418 2 299 5.58172 299 10V329.589C292.84 330.117 288 335.474 288 342.006C288 348.537 292.84 353.894 299 354.422V564C299 568.418 295.418 572 291 572H14C9.58172 572 6 568.418 6 564V354.422C12.1595 353.894 17 348.537 17 342.006C17 335.474 12.1595 330.117 6 329.589V10Z"/>
</mask>
<path fill-rule="evenodd" clip-rule="evenodd" d="M6 10C6 5.58173 9.58172 2 14 2H291C295.418 2 299 5.58172 299 10V329.589C292.84 330.117 288 335.474 288 342.006C288 348.537 292.84 353.894 299 354.422V564C299 568.418 295.418 572 291 572H14C9.58172 572 6 568.418 6 564V354.422C12.1595 353.894 17 348.537 17 342.006C17 335.474 12.1595 330.117 6 329.589V10Z" fill="#FAFAFA"/>
<path d="M299 329.589L299.085 330.586L300 330.507V329.589H299ZM299 354.422H300V353.504L299.085 353.426L299 354.422ZM6 354.422L5.91466 353.426L5 353.504V354.422H6ZM6 329.589H5V330.507L5.91466 330.586L6 329.589ZM14 1C9.02944 1 5 5.02945 5 10H7C7 6.13402 10.134 3 14 3V1ZM291 1H14V3H291V1ZM300 10C300 5.02944 295.971 1 291 1V3C294.866 3 298 6.13401 298 10H300ZM300 329.589V10H298V329.589H300ZM289 342.006C289 335.967 293.469 331.067 299.085 330.586L298.915 328.593C292.211 329.167 287 334.982 287 342.006H289ZM299.085 353.426C293.469 352.945 289 348.045 289 342.006H287C287 349.029 292.211 354.844 298.915 355.418L299.085 353.426ZM300 564V354.422H298V564H300ZM291 573C295.971 573 300 568.971 300 564H298C298 567.866 294.866 571 291 571V573ZM14 573H291V571H14V573ZM5 564C5 568.971 9.02944 573 14 573V571C10.134 571 7 567.866 7 564H5ZM5 354.422V564H7V354.422H5ZM16 342.006C16 348.045 11.5305 352.945 5.91466 353.426L6.08534 355.418C12.7885 354.844 18 349.029 18 342.006H16ZM5.91466 330.586C11.5305 331.067 16 335.967 16 342.006H18C18 334.982 12.7885 329.167 6.08534 328.593L5.91466 330.586ZM5 10V329.589H7V10H5Z" fill="#F5F5F5" mask="url(#path-1-inside-1_421_623)"/>
</g>
<path d="M17 344L22.44 339L27.88 344L33.32 339L38.76 344L44.2 339L49.64 344L55.08 339L60.52 344L65.96 339L71.4 344L76.84 339L82.28 344L87.72 339L93.16 344L98.6 339L104.04 344L109.48 339L114.92 344L120.36 339L125.8 344L131.24 339L136.68 344L142.12 339L147.56 344L153 339L158.44 344L163.88 339L169.32 344L174.76 339L180.2 344L185.64 339L191.08 344L196.52 339L201.96 344L207.4 339L212.84 344L218.28 339L223.72 344L229.16 339L234.6 344L240.04 339L245.48 344L250.92 339L256.36 344L261.8 339L267.24 344L272.68 339L278.12 344L283.56 339L289 344" stroke="#CCCCCC"/>
<defs>
<filter id="filter0_d_421_623" x="0" y="0" width="305" height="582" filterUnits="userSpaceOnUse" color-interpolation-filters="sRGB">
<feFlood flood-opacity="0" result="BackgroundImageFix"/>
<feColorMatrix in="SourceAlpha" type="matrix" values="0 0 0 0 0 0 0 0 0 0 0 0 0 0 0 0 0 0 127 0" result="hardAlpha"/>
<feOffset dy="4"/>
<feGaussianBlur stdDeviation="3"/>
<feColorMatrix type="matrix" values="0 0 0 0 0 0 0 0 0 0 0 0 0 0 0 0 0 0 0.2 0"/>
<feBlend mode="normal" in2="BackgroundImageFix" result="effect1_dropShadow_421_623"/>
<feBlend mode="normal" in="SourceGraphic" in2="effect1_dropShadow_421_623" result="shape"/>
</filter>
</defs>
</svg>
