<svg width="55" height="55" viewBox="0 0 55 55" fill="none" xmlns="http://www.w3.org/2000/svg">
<circle cx="27.5" cy="27.5" r="27.5" fill="url(#paint0_linear_421_622)"/>
<path fill-rule="evenodd" clip-rule="evenodd" d="M38.0692 14.5475C38.0692 14.0148 37.6476 13.583 37.1274 13.583H20.1743L20.005 13.5985C19.5656 13.6802 19.2324 14.074 19.2324 14.5475C19.2324 15.0801 19.6541 15.5119 20.1743 15.5119H37.1274L37.2967 15.4964C37.7361 15.4147 38.0692 15.0209 38.0692 14.5475ZM16.4076 17.4408H40.8954C42.4559 17.4408 43.7209 18.7362 43.7209 20.3341V39.623C43.7209 41.221 42.4559 42.5164 40.8954 42.5164H16.4076C14.8471 42.5164 13.582 41.221 13.582 39.623V20.3341C13.582 18.7362 14.8471 17.4408 16.4076 17.4408ZM40.8954 19.3697H16.4076C15.8874 19.3697 15.4657 19.8015 15.4657 20.3341V39.623C15.4657 40.1557 15.8874 40.5875 16.4076 40.5875H40.8954C41.4156 40.5875 41.8373 40.1557 41.8373 39.623V20.3341C41.8373 19.8015 41.4156 19.3697 40.8954 19.3697ZM23.0004 35.7653V24.1919C23.0004 23.4423 23.7991 22.9792 24.4268 23.3649L35.7289 29.1516C36.3386 29.5262 36.3386 30.431 35.7289 30.8056L24.4268 36.5923C23.7991 36.978 23.0004 36.5149 23.0004 35.7653ZM33.4126 29.9786L24.8832 25.8951V34.0601L33.4126 29.9786Z" fill="white"/>
<defs>
<linearGradient id="paint0_linear_421_622" x1="55.119" y1="54.8333" x2="-0.11905" y2="54.8333" gradientUnits="userSpaceOnUse">
<stop offset="0.239583" stop-color="#F03069"/>
<stop offset="0.776042" stop-color="#F8223C"/>
<stop offset="1" stop-color="#FB6140"/>
</linearGradient>
</defs>
</svg>
