<svg width="20" height="25" viewBox="0 0 20 25" fill="none" xmlns="http://www.w3.org/2000/svg">
<path d="M17 11.5C17 17.3333 9.5 22.3333 9.5 22.3333C9.5 22.3333 2 17.3333 2 11.5C2 9.51088 2.79018 7.60322 4.1967 6.1967C5.60322 4.79018 7.51088 4 9.5 4C11.4891 4 13.3968 4.79018 14.8033 6.1967C16.2098 7.60322 17 9.51088 17 11.5Z" stroke="#555555" stroke-width="2" stroke-linecap="round" stroke-linejoin="round"/>
<path d="M9.5 13.8333C10.8807 13.8333 12 12.714 12 11.3333C12 9.9526 10.8807 8.83331 9.5 8.83331C8.11929 8.83331 7 9.9526 7 11.3333C7 12.714 8.11929 13.8333 9.5 13.8333Z" stroke="#555555" stroke-width="2" stroke-linecap="round" stroke-linejoin="round"/>
</svg>
