<svg width="16" height="14" viewBox="0 0 16 14" fill="none" xmlns="http://www.w3.org/2000/svg">
<path d="M4.5 6.5H4.50002L4.49998 6.49513C4.4876 5.22537 3.67252 4.12135 2.5 3.7174V2C2.5 1.17157 3.17157 0.5 4 0.5H12C12.8284 0.5 13.5 1.17157 13.5 2V3.7174C12.3275 4.12135 11.5124 5.22537 11.5 6.49513H11.5V6.5V8.5H4.5V6.5Z" fill="#555555" stroke="#555555"/>
<path d="M13 10.5H13.5V10V6.5067C13.5162 5.95991 13.9541 5.51986 14.5 5.50022C15.0459 5.51986 15.4838 5.95991 15.5 6.5067V13.5H14H12H4H2H0.5V6.50669C0.516204 5.9599 0.954089 5.51986 1.5 5.50022C2.04591 5.51986 2.4838 5.9599 2.5 6.50669V10V10.5H3H13Z" fill="#555555" stroke="#555555"/>
</svg>
