<svg width="60" height="60" viewBox="0 0 60 60" fill="none" xmlns="http://www.w3.org/2000/svg">
<path d="M0.25 4C0.25 1.92893 1.92893 0.25 4 0.25H56C58.0711 0.25 59.75 1.92893 59.75 4V26.0077C57.6573 26.1367 56 27.8748 56 30C56 32.1252 57.6573 33.8633 59.75 33.9923V56C59.75 58.0711 58.0711 59.75 56 59.75H4C1.92893 59.75 0.25 58.0711 0.25 56V33.9923C2.34268 33.8633 4 32.1252 4 30C4 27.8748 2.34268 26.1367 0.25 26.0077V4ZM30 11.5C32.2091 11.5 34 9.70914 34 7.5C34 5.29086 32.2091 3.5 30 3.5C27.7909 3.5 26 5.29086 26 7.5C26 9.70914 27.7909 11.5 30 11.5Z" fill="white" stroke="#AAAAAA" stroke-width="0.5"/>
</svg>
