<svg width="70" height="70" viewBox="0 0 70 70" fill="none" xmlns="http://www.w3.org/2000/svg">
<circle cx="35" cy="35" r="35" fill="#E6E6EA"/>
<path d="M59.5138 30.1038H57.5V30H35V40H49.1288C47.0675 45.8213 41.5288 50 35 50C26.7163 50 20 43.2838 20 35C20 26.7163 26.7163 20 35 20C38.8238 20 42.3025 21.4425 44.9513 23.7988L52.0225 16.7275C47.5575 12.5663 41.585 10 35 10C21.1938 10 10 21.1938 10 35C10 48.8063 21.1938 60 35 60C48.8063 60 60 48.8063 60 35C60 33.3238 59.8275 31.6875 59.5138 30.1038Z" fill="#FFC107"/>
<path d="M12.8825 23.3637L21.0963 29.3875C23.3188 23.885 28.7013 20 35 20C38.8238 20 42.3025 21.4425 44.9513 23.7987L52.0225 16.7275C47.5575 12.5662 41.585 10 35 10C25.3975 10 17.07 15.4212 12.8825 23.3637Z" fill="#FF3D00"/>
<path d="M35 60C41.4575 60 47.325 57.5288 51.7613 53.51L44.0238 46.9625C41.5138 48.8638 38.3938 50 35 50C28.4975 50 22.9763 45.8538 20.8963 40.0675L12.7438 46.3488C16.8813 54.445 25.2838 60 35 60Z" fill="#4CAF50"/>
<path d="M59.5138 30.1038H57.5V30H35V40H49.1288C48.1388 42.7962 46.34 45.2075 44.02 46.9637L44.0238 46.9613L51.7613 53.5087C51.2138 54.0062 60 47.5 60 35C60 33.3238 59.8275 31.6875 59.5138 30.1038Z" fill="#1976D2"/>
</svg>
