<svg width="24" height="24" viewBox="0 0 24 24" fill="none" xmlns="http://www.w3.org/2000/svg">
<g clip-path="url(#clip0_295_1522)">
<path d="M10 20C4.46154 20 0 15.5385 0 10C0 4.46154 4.46154 0 10 0C15.5385 0 20 4.46154 20 10C20 15.5385 15.5385 20 10 20ZM10 1.53846C5.30769 1.53846 1.53846 5.30769 1.53846 10C1.53846 14.6923 5.30769 18.4615 10 18.4615C14.6923 18.4615 18.4615 14.6923 18.4615 10C18.4615 5.30769 14.6923 1.53846 10 1.53846Z" fill="#6D6D80"/>
<path d="M17.0883 16L24 22.9117L22.9117 24L16 17.0883L17.0883 16Z" fill="#6D6D80"/>
</g>
<defs>
<clipPath id="clip0_295_1522">
<rect width="24" height="24" fill="white"/>
</clipPath>
</defs>
</svg>
