<svg width="160" height="164" viewBox="0 0 160 164" fill="none" xmlns="http://www.w3.org/2000/svg">
<path d="M154.286 48C155.801 48 157.255 47.3679 158.326 46.2426C159.398 45.1174 160 43.5913 160 42V12C160 8.8174 158.796 5.76515 156.653 3.51472C154.509 1.26428 151.602 0 148.571 0H11.4286C8.39753 0 5.49062 1.26428 3.34735 3.51472C1.20408 5.76515 0 8.8174 0 12V42C0 43.5913 0.602039 45.1174 1.67368 46.2426C2.74531 47.3679 4.19876 48 5.71429 48C8.74533 48 11.6522 49.2643 13.7955 51.5147C15.9388 53.7652 17.1429 56.8174 17.1429 60C17.1429 63.1826 15.9388 66.2348 13.7955 68.4853C11.6522 70.7357 8.74533 72 5.71429 72C4.19876 72 2.74531 72.6321 1.67368 73.7574C0.602039 74.8826 0 76.4087 0 78V108C0 111.183 1.20408 114.235 3.34735 116.485C5.49062 118.736 8.39753 120 11.4286 120H148.571C151.602 120 154.509 118.736 156.653 116.485C158.796 114.235 160 111.183 160 108V78C160 76.4087 159.398 74.8826 158.326 73.7574C157.255 72.6321 155.801 72 154.286 72C151.255 72 148.348 70.7357 146.204 68.4853C144.061 66.2348 142.857 63.1826 142.857 60C142.857 56.8174 144.061 53.7652 146.204 51.5147C148.348 49.2643 151.255 48 154.286 48V48ZM148.571 83.22V108H108.571V90H97.1429V108H11.4286V83.22C16.32 81.8776 20.6495 78.8703 23.7396 74.6688C26.8296 70.4672 28.5058 65.3085 28.5058 60C28.5058 54.6915 26.8296 49.5328 23.7396 45.3312C20.6495 41.1297 16.32 38.1224 11.4286 36.78V12H97.1429V30H108.571V12H148.571V36.78C143.68 38.1224 139.35 41.1297 136.26 45.3312C133.17 49.5328 131.494 54.6915 131.494 60C131.494 65.3085 133.17 70.4672 136.26 74.6688C139.35 78.8703 143.68 81.8776 148.571 83.22V83.22Z" fill="url(#paint0_linear_305_628)"/>
<path d="M96.4824 41.6001H107.739V77.6001H96.4824V41.6001Z" fill="#E81956"/>
<path d="M53.4675 48.4998C60.5505 48.4998 66.2338 53.8589 66.2338 60.3998C66.2338 66.9407 60.5505 72.2998 53.4675 72.2998C46.3845 72.2998 40.7012 66.9407 40.7012 60.3998C40.7012 53.8589 46.3845 48.4998 53.4675 48.4998Z" fill="#E81956" stroke="#F9343D"/>
<path d="M5.82734 154.76H7.98734C13.0573 154.76 16.5973 154.61 20.7673 153.92L21.0073 155.93C16.7473 156.68 13.1473 156.83 7.98734 156.83H5.82734V154.76ZM5.82734 138.68H18.9673V140.75H8.28734V155.48H5.82734V138.68ZM7.68734 146.27H17.9773V148.28H7.68734V146.27ZM23.8573 136.22H26.3473V163.34H23.8573V136.22ZM41.345 144.17H47.315V146.18H41.345V144.17ZM52.055 136.22H54.425V154.64H52.055V136.22ZM46.685 136.7H49.055V152.21H46.685V136.7ZM44.105 153.05H46.235V153.92C46.235 158.78 41.285 162.29 35.825 163.25L34.865 161.27C39.665 160.52 44.105 157.52 44.105 153.92V153.05ZM44.435 153.05H46.595V153.92C46.595 157.52 51.065 160.52 55.835 161.27L54.875 163.25C49.415 162.29 44.435 158.78 44.435 153.92V153.05ZM41.045 138.5H43.475C43.475 145.16 40.565 150.5 32.915 153.83L31.685 152C38.465 149.12 41.045 144.68 41.045 139.16V138.5ZM32.945 138.5H41.915V140.54H32.945V138.5ZM40.805 143.6V145.34L32.075 146.27L31.685 144.2L40.805 143.6ZM58.8027 150.47H83.3127V152.51H58.8027V150.47ZM61.9827 160.7H80.6127V162.74H61.9827V160.7ZM61.9827 154.88H64.4727V161.33H61.9827V154.88ZM71.0727 137.12C76.8627 137.12 80.6127 139.16 80.6127 142.55C80.6127 145.91 76.8627 147.95 71.0727 147.95C65.2527 147.95 61.5327 145.91 61.5327 142.55C61.5327 139.16 65.2527 137.12 71.0727 137.12ZM71.0727 139.16C66.8127 139.16 64.0827 140.42 64.0827 142.55C64.0827 144.68 66.8127 145.94 71.0727 145.94C75.3327 145.94 78.0627 144.68 78.0627 142.55C78.0627 140.42 75.3327 139.16 71.0727 139.16ZM93.7108 142.016V139.182H110.596V142.016H103.789V161H100.508V142.016H93.7108ZM121.162 161.298C119.635 161.298 118.285 161.036 117.113 160.51C115.949 159.984 115.036 159.26 114.375 158.337C113.715 157.413 113.388 156.362 113.395 155.183C113.388 154.26 113.576 153.411 113.96 152.637C114.351 151.856 114.88 151.206 115.547 150.688C116.215 150.162 116.961 149.828 117.785 149.686V149.558C116.698 149.295 115.828 148.713 115.174 147.811C114.521 146.909 114.198 145.872 114.205 144.7C114.198 143.585 114.493 142.591 115.089 141.717C115.693 140.837 116.52 140.144 117.571 139.64C118.623 139.136 119.819 138.884 121.162 138.884C122.49 138.884 123.676 139.139 124.72 139.651C125.771 140.155 126.598 140.847 127.202 141.728C127.806 142.602 128.111 143.592 128.118 144.7C128.111 145.872 127.777 146.909 127.117 147.811C126.456 148.713 125.597 149.295 124.539 149.558V149.686C125.356 149.828 126.091 150.162 126.744 150.688C127.405 151.206 127.93 151.856 128.321 152.637C128.718 153.411 128.921 154.26 128.928 155.183C128.921 156.362 128.587 157.413 127.927 158.337C127.266 159.26 126.35 159.984 125.178 160.51C124.013 161.036 122.674 161.298 121.162 161.298ZM121.162 158.603C122.064 158.603 122.845 158.454 123.505 158.156C124.166 157.85 124.677 157.428 125.04 156.888C125.402 156.341 125.586 155.702 125.593 154.97C125.586 154.21 125.388 153.539 124.997 152.957C124.613 152.374 124.091 151.916 123.431 151.582C122.77 151.249 122.014 151.082 121.162 151.082C120.302 151.082 119.539 151.249 118.871 151.582C118.204 151.916 117.678 152.374 117.294 152.957C116.911 153.539 116.723 154.21 116.73 154.97C116.723 155.702 116.897 156.341 117.252 156.888C117.614 157.428 118.129 157.85 118.797 158.156C119.464 158.454 120.253 158.603 121.162 158.603ZM121.162 148.45C121.886 148.45 122.529 148.305 123.09 148.013C123.651 147.722 124.091 147.317 124.411 146.799C124.738 146.281 124.905 145.673 124.912 144.977C124.905 144.295 124.741 143.699 124.422 143.188C124.109 142.676 123.672 142.282 123.111 142.005C122.55 141.721 121.9 141.579 121.162 141.579C120.409 141.579 119.748 141.721 119.18 142.005C118.619 142.282 118.182 142.676 117.87 143.188C117.557 143.699 117.405 144.295 117.412 144.977C117.405 145.673 117.561 146.281 117.88 146.799C118.2 147.317 118.64 147.722 119.201 148.013C119.77 148.305 120.423 148.45 121.162 148.45ZM132.505 161V158.614L139.887 150.964C140.676 150.134 141.326 149.406 141.837 148.781C142.355 148.148 142.743 147.548 142.998 146.98C143.254 146.412 143.382 145.808 143.382 145.169C143.382 144.445 143.211 143.82 142.87 143.294C142.529 142.761 142.064 142.353 141.475 142.069C140.885 141.778 140.221 141.632 139.483 141.632C138.701 141.632 138.019 141.792 137.437 142.112C136.855 142.431 136.407 142.882 136.095 143.464C135.782 144.047 135.626 144.729 135.626 145.51H132.483C132.483 144.182 132.789 143.021 133.399 142.026C134.01 141.032 134.848 140.261 135.914 139.714C136.979 139.161 138.19 138.884 139.546 138.884C140.917 138.884 142.125 139.157 143.169 139.704C144.22 140.244 145.04 140.982 145.63 141.92C146.219 142.85 146.514 143.901 146.514 145.073C146.514 145.883 146.361 146.675 146.056 147.449C145.757 148.223 145.235 149.086 144.49 150.038C143.744 150.982 142.707 152.129 141.379 153.479L137.043 158.017V158.177H146.865V161H132.505ZM154.722 139.182L154.445 154.725H151.494L151.217 139.182H154.722ZM152.975 161.202C152.385 161.202 151.881 160.996 151.462 160.585C151.043 160.165 150.837 159.661 150.844 159.072C150.837 158.489 151.043 157.992 151.462 157.58C151.881 157.161 152.385 156.952 152.975 156.952C153.55 156.952 154.047 157.161 154.466 157.58C154.885 157.992 155.098 158.489 155.105 159.072C155.098 159.462 154.995 159.821 154.797 160.148C154.605 160.467 154.349 160.723 154.029 160.915C153.71 161.107 153.358 161.202 152.975 161.202Z" fill="#E81956"/>
<defs>
<linearGradient id="paint0_linear_305_628" x1="160.346" y1="119.636" x2="-0.346326" y2="119.636" gradientUnits="userSpaceOnUse">
<stop offset="0.239583" stop-color="#F03069"/>
<stop offset="0.776042" stop-color="#F8223C"/>
<stop offset="1" stop-color="#FB6140"/>
</linearGradient>
</defs>
</svg>
