<svg width="12" height="23" viewBox="0 0 12 23" fill="none" xmlns="http://www.w3.org/2000/svg">
<path fill-rule="evenodd" clip-rule="evenodd" d="M11.7387 22.2313C11.6591 22.3118 11.5647 22.3757 11.4606 22.4193C11.3566 22.4629 11.2451 22.4854 11.1325 22.4854C11.0198 22.4854 10.9083 22.4629 10.8043 22.4193C10.7003 22.3757 10.6058 22.3118 10.5262 22.2313L0.251229 11.8546C0.17149 11.7742 0.108226 11.6788 0.0650597 11.5738C0.0218935 11.4687 -0.000326157 11.3561 -0.000326157 11.2423C-0.000326157 11.1286 0.0218935 11.016 0.0650597 10.9109C0.108226 10.8059 0.17149 10.7104 0.251229 10.6301L10.5262 0.253387C10.687 0.0910149 10.9051 -0.000205994 11.1325 -0.000205994C11.3598 -0.000205994 11.5779 0.0910149 11.7387 0.253387C11.8995 0.41576 11.9898 0.635984 11.9898 0.865614C11.9898 1.09524 11.8995 1.31547 11.7387 1.47784L2.06819 11.2423L11.7387 21.0069C11.8184 21.0872 11.8817 21.1826 11.9248 21.2877C11.968 21.3927 11.9902 21.5053 11.9902 21.6191C11.9902 21.7328 11.968 21.8454 11.9248 21.9505C11.8817 22.0556 11.8184 22.151 11.7387 22.2313Z" fill="#6D6D80"/>
</svg>
