<svg width="24" height="24" viewBox="0 0 24 24" fill="none" xmlns="http://www.w3.org/2000/svg">
<path d="M0 0H24V1.19008H0V0Z" fill="#6D6D80"/>
<path d="M0 4.95868H24V6.14876H0V4.95868Z" fill="#6D6D80"/>
<path d="M0 17.8512H24V18.843H0V17.8512Z" fill="#6D6D80"/>
<path d="M0 22.8099H24V24H0V22.8099Z" fill="#6D6D80"/>
<path d="M1.2 4.95868L1.2 17.8512H0V4.95868H1.2Z" fill="#6D6D80"/>
<path d="M12.6 5.95041V18.843H11.4L11.4 5.95041H12.6Z" fill="#6D6D80"/>
<path d="M24 4.95868V17.8512H22.8V4.95868H24Z" fill="#6D6D80"/>
<path d="M21.2 0.991736V5.95041H20V0.991735L21.2 0.991736Z" fill="#6D6D80"/>
<path d="M21.4 17.8512V22.8099H20.2V17.8512H21.4Z" fill="#6D6D80"/>
<path d="M15.2 0.991736V5.95041H14V0.991735L15.2 0.991736Z" fill="#6D6D80"/>
<path d="M15.4 17.8512V22.8099H14.2V17.8512H15.4Z" fill="#6D6D80"/>
<path d="M9.5 0.991736V5.95041H8.3V0.991735L9.5 0.991736Z" fill="#6D6D80"/>
<path d="M9.7 17.8512V22.8099H8.5V17.8512H9.7Z" fill="#6D6D80"/>
<path d="M4 0.991736V5.95041H2.8L2.8 0.991735L4 0.991736Z" fill="#6D6D80"/>
<path d="M4.2 17.8512V22.8099H3L3 17.8512H4.2Z" fill="#6D6D80"/>
</svg>
