<svg width="24" height="16" viewBox="0 0 24 16" fill="none" xmlns="http://www.w3.org/2000/svg">
<g clip-path="url(#clip0_295_1030)">
<path d="M22.8 0H1.2C0.88174 0 0.576515 0.120408 0.351472 0.334735C0.126428 0.549063 0 0.839753 0 1.14286V5.71429H1.0716C2.2668 5.71429 3.3756 6.49257 3.5676 7.616C3.62609 7.94404 3.60871 8.28029 3.51668 8.60128C3.42464 8.92226 3.26017 9.22026 3.03473 9.47446C2.8093 9.72866 2.52833 9.93295 2.21144 10.0731C1.89455 10.2132 1.54938 10.2858 1.2 10.2857H0V14.8571C0 15.1602 0.126428 15.4509 0.351472 15.6653C0.576515 15.8796 0.88174 16 1.2 16H22.8C23.1183 16 23.4235 15.8796 23.6485 15.6653C23.8736 15.4509 24 15.1602 24 14.8571V10.2857H22.8C22.4506 10.2858 22.1054 10.2132 21.7886 10.0731C21.4717 9.93295 21.1907 9.72866 20.9653 9.47446C20.7398 9.22026 20.5754 8.92226 20.4833 8.60128C20.3913 8.28029 20.3739 7.94404 20.4324 7.616C20.6244 6.49257 21.7332 5.71429 22.9284 5.71429H24V1.14286C24 0.839753 23.8736 0.549063 23.6485 0.334735C23.4235 0.120408 23.1183 0 22.8 0ZM8.4 4.57143C8.71826 4.57143 9.02348 4.69184 9.24853 4.90616C9.47357 5.12049 9.6 5.41118 9.6 5.71429C9.6 6.01739 9.47357 6.30808 9.24853 6.52241C9.02348 6.73674 8.71826 6.85714 8.4 6.85714C8.08174 6.85714 7.77652 6.73674 7.55147 6.52241C7.32643 6.30808 7.2 6.01739 7.2 5.71429C7.2 5.41118 7.32643 5.12049 7.55147 4.90616C7.77652 4.69184 8.08174 4.57143 8.4 4.57143ZM7.44 11.8857L14.64 2.74286L16.56 4.11429L9.36 13.2571L7.44 11.8857ZM15.6 11.4286C15.2817 11.4286 14.9765 11.3082 14.7515 11.0938C14.5264 10.8795 14.4 10.5888 14.4 10.2857C14.4 9.98261 14.5264 9.69192 14.7515 9.47759C14.9765 9.26327 15.2817 9.14286 15.6 9.14286C15.9183 9.14286 16.2235 9.26327 16.4485 9.47759C16.6736 9.69192 16.8 9.98261 16.8 10.2857C16.8 10.5888 16.6736 10.8795 16.4485 11.0938C16.2235 11.3082 15.9183 11.4286 15.6 11.4286Z" fill="url(#paint0_linear_295_1030)"/>
</g>
<defs>
<linearGradient id="paint0_linear_295_1030" x1="24.0519" y1="15.9515" x2="-0.0519489" y2="15.9515" gradientUnits="userSpaceOnUse">
<stop offset="0.239583" stop-color="#F03069"/>
<stop offset="0.776042" stop-color="#F8223C"/>
<stop offset="1" stop-color="#FB6140"/>
</linearGradient>
<clipPath id="clip0_295_1030">
<rect width="24" height="16" fill="white"/>
</clipPath>
</defs>
</svg>
