<svg width="337" height="129" viewBox="0 0 337 129" fill="none" xmlns="http://www.w3.org/2000/svg">
<g filter="url(#filter0_d_345_1654)">
<mask id="path-1-inside-1_345_1654" fill="white">
<path fill-rule="evenodd" clip-rule="evenodd" d="M327 10C327 5.58172 323.418 2 319 2L248.781 2C248.783 2.08855 248.784 2.17737 248.784 2.26643C248.784 8.29971 243.549 13.1906 237.091 13.1906C230.633 13.1906 225.398 8.29971 225.398 2.26643C225.398 2.17737 225.399 2.08855 225.401 2L10 2C5.58173 2 2 5.58172 2 10V111C2 115.418 5.58173 119 10 119L225.409 119C225.402 118.839 225.398 118.677 225.398 118.514C225.398 112.481 230.633 107.59 237.091 107.59C243.549 107.59 248.784 112.481 248.784 118.514C248.784 118.677 248.781 118.839 248.773 119L319 119C323.418 119 327 115.418 327 111V10ZM280.614 60.0758C280.614 66.1091 285.849 71 292.307 71C298.765 71 304 66.1091 304 60.0758C304 54.0425 298.765 49.1516 292.307 49.1516C285.849 49.1516 280.614 54.0425 280.614 60.0758Z"/>
</mask>
<path fill-rule="evenodd" clip-rule="evenodd" d="M327 10C327 5.58172 323.418 2 319 2L248.781 2C248.783 2.08855 248.784 2.17737 248.784 2.26643C248.784 8.29971 243.549 13.1906 237.091 13.1906C230.633 13.1906 225.398 8.29971 225.398 2.26643C225.398 2.17737 225.399 2.08855 225.401 2L10 2C5.58173 2 2 5.58172 2 10V111C2 115.418 5.58173 119 10 119L225.409 119C225.402 118.839 225.398 118.677 225.398 118.514C225.398 112.481 230.633 107.59 237.091 107.59C243.549 107.59 248.784 112.481 248.784 118.514C248.784 118.677 248.781 118.839 248.773 119L319 119C323.418 119 327 115.418 327 111V10ZM280.614 60.0758C280.614 66.1091 285.849 71 292.307 71C298.765 71 304 66.1091 304 60.0758C304 54.0425 298.765 49.1516 292.307 49.1516C285.849 49.1516 280.614 54.0425 280.614 60.0758Z" fill="#FAFAFA"/>
<path d="M248.781 2V1L247.755 1L247.781 2.02558L248.781 2ZM225.401 2L226.401 2.02558L226.427 1L225.401 1V2ZM225.409 119V120H226.457L226.408 118.953L225.409 119ZM248.773 119L247.774 118.953L247.725 120H248.773V119ZM319 3C322.866 3 326 6.13401 326 10H328C328 5.02944 323.971 1 319 1V3ZM248.781 3L319 3V1L248.781 1V3ZM249.784 2.26643C249.784 2.1688 249.783 2.07146 249.781 1.97442L247.781 2.02558C247.783 2.10565 247.784 2.18594 247.784 2.26643L249.784 2.26643ZM237.091 14.1906C244.036 14.1906 249.784 8.91498 249.784 2.26643L247.784 2.26643C247.784 7.68444 243.062 12.1906 237.091 12.1906V14.1906ZM224.398 2.26643C224.398 8.91498 230.146 14.1906 237.091 14.1906V12.1906C231.12 12.1906 226.398 7.68444 226.398 2.26643H224.398ZM224.402 1.97442C224.399 2.07146 224.398 2.1688 224.398 2.26643H226.398C226.398 2.18594 226.399 2.10565 226.401 2.02558L224.402 1.97442ZM10 3L225.401 3V1L10 1V3ZM3 10C3 6.13401 6.134 3 10 3V1C5.02945 1 1 5.02944 1 10H3ZM3 111V10H1V111H3ZM10 118C6.134 118 3 114.866 3 111H1C1 115.971 5.02945 120 10 120V118ZM225.409 118L10 118V120L225.409 120V118ZM224.398 118.514C224.398 118.693 224.402 118.87 224.41 119.047L226.408 118.953C226.401 118.808 226.398 118.661 226.398 118.514H224.398ZM237.091 106.59C230.146 106.59 224.398 111.866 224.398 118.514H226.398C226.398 113.096 231.12 108.59 237.091 108.59V106.59ZM249.784 118.514C249.784 111.866 244.036 106.59 237.091 106.59V108.59C243.062 108.59 247.784 113.096 247.784 118.514H249.784ZM249.772 119.047C249.78 118.87 249.784 118.693 249.784 118.514H247.784C247.784 118.661 247.781 118.808 247.774 118.953L249.772 119.047ZM319 118L248.773 118V120L319 120V118ZM326 111C326 114.866 322.866 118 319 118V120C323.971 120 328 115.971 328 111H326ZM326 10V111H328V10H326ZM292.307 70C286.336 70 281.614 65.4938 281.614 60.0758H279.614C279.614 66.7243 285.362 72 292.307 72V70ZM303 60.0758C303 65.4938 298.278 70 292.307 70V72C299.252 72 305 66.7243 305 60.0758H303ZM292.307 50.1516C298.278 50.1516 303 54.6578 303 60.0758H305C305 53.4272 299.252 48.1516 292.307 48.1516V50.1516ZM281.614 60.0758C281.614 54.6578 286.336 50.1516 292.307 50.1516V48.1516C285.362 48.1516 279.614 53.4272 279.614 60.0758H281.614Z" fill="#F5F5F5" mask="url(#path-1-inside-1_345_1654)"/>
</g>
<path d="M236 12.9999L239 14.8799L236 16.7599L239 18.6399L236 20.5199L239 22.3999L236 24.2799L239 26.1599L236 28.0399L239 29.9199L236 31.7999L239 33.6799L236 35.5599L239 37.4399L236 39.3199L239 41.1999L236 43.0799L239 44.9599L236 46.8399L239 48.7199L236 50.5999L239 52.4799L236 54.3599L239 56.2399L236 58.1199L239 59.9999L236 61.8799L239 63.7599L236 65.6399L239 67.5199L236 69.3999L239 71.2799L236 73.1599L239 75.0399L236 76.9199L239 78.7999L236 80.6799L239 82.5599L236 84.4399L239 86.3199L236 88.1999L239 90.0799L236 91.9599L239 93.8399L236 95.7199L239 97.5999L236 99.4799L239 101.36L236 103.24L239 105.12L236 107" stroke="#CCCCCC" stroke-width="0.5"/>
<defs>
<filter id="filter0_d_345_1654" x="0" y="0" width="337" height="129" filterUnits="userSpaceOnUse" color-interpolation-filters="sRGB">
<feFlood flood-opacity="0" result="BackgroundImageFix"/>
<feColorMatrix in="SourceAlpha" type="matrix" values="0 0 0 0 0 0 0 0 0 0 0 0 0 0 0 0 0 0 127 0" result="hardAlpha"/>
<feOffset dx="4" dy="4"/>
<feGaussianBlur stdDeviation="3"/>
<feColorMatrix type="matrix" values="0 0 0 0 0 0 0 0 0 0 0 0 0 0 0 0 0 0 0.2 0"/>
<feBlend mode="normal" in2="BackgroundImageFix" result="effect1_dropShadow_345_1654"/>
<feBlend mode="normal" in="SourceGraphic" in2="effect1_dropShadow_345_1654" result="shape"/>
</filter>
</defs>
</svg>
