<svg width="25" height="24" viewBox="0 0 25 24" fill="none" xmlns="http://www.w3.org/2000/svg">
<path d="M23.8884 7.66737C24.2017 7.57942 24.4833 7.34696 24.6858 7.00907C24.8882 6.67119 24.9992 6.2485 25 5.8121V1.89474C24.9996 1.39239 24.8531 0.91077 24.5928 0.555556C24.3324 0.200341 23.9793 0.000543329 23.6111 0H1.38889C1.02065 0.000543329 0.667617 0.200341 0.407236 0.555556C0.146855 0.91077 0.000398273 1.39239 0 1.89474V5.8121C0.00083037 6.2485 0.1118 6.67119 0.314243 7.00907C0.516686 7.34696 0.79825 7.57942 1.11157 7.66737C1.8434 7.87155 2.50109 8.41427 2.97341 9.20373C3.44573 9.99319 3.7037 10.981 3.7037 12C3.7037 13.019 3.44573 14.0068 2.97341 14.7963C2.50109 15.5857 1.8434 16.1284 1.11157 16.3326C0.79825 16.4206 0.516686 16.653 0.314243 16.9909C0.1118 17.3288 0.00083037 17.7515 0 18.1879V22.1053C0.000398273 22.6076 0.146855 23.0892 0.407236 23.4444C0.667617 23.7997 1.02065 23.9995 1.38889 24H23.6111C23.9793 23.9995 24.3324 23.7997 24.5928 23.4444C24.8531 23.0892 24.9996 22.6076 25 22.1053V18.1879C24.9992 17.7515 24.8882 17.3288 24.6858 16.9909C24.4833 16.653 24.2017 16.4206 23.8884 16.3326C23.1566 16.1284 22.4989 15.5857 22.0266 14.7963C21.5543 14.0068 21.2963 13.019 21.2963 12C21.2963 10.981 21.5543 9.99319 22.0266 9.20373C22.4989 8.41427 23.1566 7.87155 23.8884 7.66737ZM0.925926 22.1053V18.1879C0.926186 18.0427 0.963095 17.902 1.03044 17.7896C1.09779 17.6772 1.19147 17.5998 1.29572 17.5705C2.23686 17.3084 3.08273 16.6107 3.69021 15.5957C4.2977 14.5806 4.62951 13.3104 4.62951 12C4.62951 10.6896 4.2977 9.41941 3.69021 8.40434C3.08273 7.38927 2.23686 6.69164 1.29572 6.42947C1.19147 6.40019 1.09779 6.32283 1.03044 6.21039C0.963095 6.09795 0.926186 5.95731 0.925926 5.8121V1.89474C0.926048 1.72728 0.974864 1.56674 1.06166 1.44833C1.14846 1.32992 1.26614 1.26333 1.38889 1.26316H8.33333V22.7368H1.38889C1.26614 22.7367 1.14846 22.6701 1.06166 22.5517C0.974864 22.4333 0.926048 22.2727 0.925926 22.1053ZM20.3704 12C20.3723 13.3097 20.7049 14.5786 21.3121 15.5931C21.9192 16.6076 22.764 17.3059 23.7043 17.5705C23.8085 17.5998 23.9022 17.6772 23.9696 17.7896C24.0369 17.902 24.0738 18.0427 24.0741 18.1879V22.1053C24.074 22.2727 24.0251 22.4333 23.9383 22.5517C23.8515 22.6701 23.7339 22.7367 23.6111 22.7368H9.25926V1.26316H23.6111C23.7339 1.26333 23.8515 1.32992 23.9383 1.44833C24.0251 1.56674 24.074 1.72728 24.0741 1.89474V5.8121C24.0738 5.95731 24.0369 6.09795 23.9696 6.21039C23.9022 6.32283 23.8085 6.40019 23.7043 6.42947C22.764 6.69408 21.9192 7.39238 21.3121 8.4069C20.7049 9.42143 20.3723 10.6903 20.3704 12Z" fill="#6D6D80"/>
</svg>
